# xmcd
#
# Track frame offsets:
#  150
#  19147
#  43000
#  63487
#  79325
#  99357
#  117687
#  132262
#  152637
#  171575
#  184820
#  209362
#
# Disc length: 2985 seconds
#
# Revision: 0
# Processed by: cddbd v1.4PL0 Copyright (c) Steve Scherf et al.
# Submitted via: AltoMP3_Maker 3.0
#
DISCID=ac0ba70c
DTITLE=Philipp Fankhauser with The Checkerboard Blues Band - Welcome To The Real World
DYEAR=1900
DGENRE=
TTITLE0=Welcome To The Real World
TTITLE1=Home Town
TTITLE2=You Don't Know
TTITLE3=Going To Dallas
TTITLE4=Sunnyland
TTITLE5=Greater Man
TTITLE6=The Things I Used To Do
TTITLE7=Cut Off My Right Arm
TTITLE8=I've Been Loving You Too Long
TTITLE9=Flyin' High
TTITLE10=Bring Your Fine Self Home
TTITLE11=I'm So Lonesome I Could Cry
EXTD=
EXTT0=
EXTT1=
EXTT2=
EXTT3=
EXTT4=
EXTT5=
EXTT6=
EXTT7=
EXTT8=
EXTT9=
EXTT10=
EXTT11=
PLAYORDER=
